<svg width="90" height="90" viewBox="0 0 90 90" fill="none" xmlns="http://www.w3.org/2000/svg">
<path d="M4.44775 4.49414L86.2083 4.53235L86.1704 85.5372L4.4099 85.499L4.44775 4.49414Z" fill="url(#paint0_radial_167_586)"/>
<path d="M4.44769 4.49447L86.2082 4.53267L86.1704 85.5376L4.40984 85.4994L4.44769 4.49447ZM0.692498 89.2814L89.902 89.323L89.9434 0.750671L0.733887 0.708984L0.692498 89.2814ZM63.8251 43.4329C65.7186 43.4338 66.3974 43.4341 66.5761 43.3615C66.5762 43.0886 66.6478 42.9067 66.6479 42.7248C66.6488 40.6874 65.686 36.9032 61.8275 36.9014C58.2548 36.8997 56.7349 40.0825 56.3582 43.4476L63.8251 43.4511L63.8251 43.4329ZM56.2844 48.6139C56.3534 53.7256 58.7277 57.1648 64.3903 57.1675C66.5875 57.1685 68.4812 56.8601 70.4465 56.0061C70.7145 55.8971 70.8932 55.9335 70.893 56.2792L70.8908 61.0088C70.8906 61.3908 70.7833 61.5727 70.5153 61.7727C68.5499 62.7541 66.0845 63.2077 63.0478 63.2063C53.2408 63.2017 49.5644 55.8144 49.5682 47.6102C49.5724 38.6784 54.1131 31.3677 62.098 31.3714C70.208 31.3752 73.0271 38.3074 73.0245 43.9466C73.0237 45.7657 72.9158 47.2391 72.719 47.9667C72.6474 48.2759 72.5401 48.385 72.2364 48.4576C71.4861 48.5664 69.3067 48.7291 66.0377 48.7276L56.3022 48.723L56.3022 48.6139L56.2844 48.6139ZM36.3507 44.7481C35.3166 40.5454 32.7843 31.3941 31.8574 26.9551L31.786 26.955C30.9979 31.3751 28.958 38.8689 27.4369 44.7439L36.3507 44.7481ZM25.9156 50.8736L22.9807 62.1871C22.9092 62.4963 22.8019 62.6054 22.4268 62.6052L16.9427 62.6026C16.5676 62.6025 16.4962 62.4933 16.5679 62.0385L27.1427 24.4607C27.3216 23.7877 27.4469 23.242 27.5193 21.3502C27.5194 21.0773 27.6266 20.9682 27.8231 20.9683L35.6294 20.972C35.8973 20.9721 36.0045 21.0449 36.0758 21.3542L47.8644 62.1259C47.9357 62.4352 47.8642 62.6171 47.5605 62.6169L41.4334 62.6141C41.1297 62.6139 40.9511 62.5047 40.8798 62.2318L37.8305 50.8791L25.9156 50.8736Z" fill="#D8A1FF"/>
<defs>
<radialGradient id="paint0_radial_167_586" cx="0" cy="0" r="1" gradientUnits="userSpaceOnUse" gradientTransform="translate(31.3917 22.6679) rotate(0.0267738) scale(62.1407 61.2673)">
<stop stop-color="#442F55" stop-opacity="0.98"/>
<stop offset="1" stop-color="#12002C"/>
</radialGradient>
</defs>
</svg>
