<svg width="90" height="90" viewBox="0 0 90 90" fill="none" xmlns="http://www.w3.org/2000/svg">
<path d="M4.38086 4.375L86.1413 4.41321L86.1035 85.4181L4.34301 85.3799L4.38086 4.375Z" fill="url(#paint0_radial_167_573)"/>
<path d="M4.3808 4.37532L86.1412 4.41353L86.1034 85.4184L4.34294 85.3802L4.3808 4.37532ZM0.625603 89.1622L89.8351 89.2039L89.8765 0.631531L0.666992 0.589844L0.625603 89.1622ZM59.0832 32.1969C59.0833 31.8876 59.1906 31.7421 59.53 31.7423L65.3713 31.745C65.675 31.7452 65.8178 31.8544 65.8177 32.2L65.8037 62.0698C65.8036 62.379 65.732 62.5245 65.3569 62.5243L59.587 62.5216C59.2119 62.5215 59.1048 62.3395 59.105 62.0303L59.1189 32.1969L59.0832 32.1969ZM58.6763 23.5923C58.6775 21.1729 60.3573 19.7366 62.4652 19.7376C64.7338 19.7386 66.2515 21.2856 66.2504 23.5958C66.2492 26.088 64.6588 27.4516 62.3901 27.4505C60.2465 27.4677 58.6752 26.1027 58.6763 23.5923ZM41.9464 44.6316C40.9123 40.4289 38.4515 31.2777 37.5246 26.8386L37.4532 26.8386C36.6651 31.2586 34.6967 38.7525 33.1398 44.6274L41.9464 44.6316ZM31.6186 50.7571L28.6837 62.107C28.6121 62.4162 28.5049 62.4889 28.1297 62.4888L22.6636 62.4862C22.2884 62.486 22.217 62.3768 22.2887 61.9221L32.8635 24.3079C33.0424 23.6349 33.1678 23.0164 33.2401 21.161C33.2402 20.8881 33.3475 20.779 33.544 20.7791L41.3502 20.7828C41.6182 20.7829 41.7253 20.8557 41.7966 21.165L53.6031 62.0095C53.6744 62.3188 53.6028 62.5007 53.2992 62.5005L47.1363 62.4976C46.8326 62.4975 46.654 62.4246 46.5827 62.1517L43.5334 50.7627L31.6186 50.7571Z" fill="#FF7F18"/>
<defs>
<radialGradient id="paint0_radial_167_573" cx="0" cy="0" r="1" gradientUnits="userSpaceOnUse" gradientTransform="translate(31.327 22.5648) rotate(0.0267738) scale(62.1406 61.2673)">
<stop stop-color="#423325" stop-opacity="0.98"/>
<stop offset="1" stop-color="#1C0A00"/>
</radialGradient>
</defs>
</svg>
