<svg width="22" height="20" viewBox="0 0 22 20" fill="none" xmlns="http://www.w3.org/2000/svg">
<path d="M9.89642 0.953117C10.1967 0.0329811 11.4986 0.0335903 11.798 0.954007L13.5466 6.32922C13.6805 6.74091 14.0642 7.01967 14.4971 7.01987L20.1578 7.02252C21.1272 7.02297 21.529 8.26419 20.7437 8.83258L16.1673 12.1451C15.8157 12.3996 15.6684 12.8518 15.8027 13.2645L17.5488 18.632C17.8483 19.5529 16.7947 20.3194 16.0107 19.7508L11.4267 16.4263C11.0768 16.1725 10.6034 16.1723 10.2533 16.4258L5.66617 19.746C4.88165 20.3138 3.82872 19.5464 4.12917 18.6257L5.88025 13.2599C6.0149 12.8473 5.86803 12.3949 5.51669 12.1401L0.943365 8.82333C0.158625 8.2542 0.561535 7.01336 1.53093 7.01381L7.19169 7.01646C7.62461 7.01666 8.0085 6.73826 8.14281 6.3267L9.89642 0.953117Z" fill="#E5E5E5"/>
</svg>
