<svg width="60" height="90" viewBox="0 0 60 90" fill="none" xmlns="http://www.w3.org/2000/svg">
<g clip-path="url(#clip0_167_598)">
<path d="M15.3888 89.8359C23.4273 89.8397 29.9505 83.203 29.9544 75.017L29.9613 60.1913L15.4026 60.1845C7.36412 60.1808 0.840891 66.8175 0.837066 75.0034C0.833241 83.1894 7.35027 89.8322 15.3888 89.8359Z" fill="#0ACF83"/>
<path d="M0.850982 45.3335C0.854807 37.1475 7.37804 30.5109 15.4166 30.5146L29.9752 30.5214L29.9613 60.191L15.4027 60.1842C7.36418 60.1623 0.847157 53.5195 0.850982 45.3335Z" fill="#A259FF"/>
<path d="M0.864898 15.6636C0.868723 7.47762 7.39195 0.840937 15.4305 0.844694L29.9891 0.851497L29.9752 30.5211L15.4166 30.5143C7.37809 30.5105 0.861073 23.8496 0.864898 15.6636Z" fill="#F24E1E"/>
<path d="M30.0068 0.851562L44.5655 0.858366C52.604 0.862122 59.121 7.5049 59.1172 15.6909C59.1134 23.8768 52.5901 30.5135 44.5516 30.5098L29.993 30.503L30.0068 0.851562Z" fill="#FF7262"/>
<path d="M59.1035 45.3608C59.0997 53.5468 52.5765 60.1834 44.538 60.1797C36.4994 60.1759 29.9824 53.5332 29.9862 45.3472C29.9901 37.1612 36.5133 30.5245 44.5518 30.5283C52.5903 30.532 59.1073 37.1748 59.1035 45.3608Z" fill="#1ABCFE"/>
</g>
<defs>
<clipPath id="clip0_167_598">
<rect width="58.2524" height="88.9906" fill="white" transform="translate(0.871826 0.837891) rotate(0.0267738)"/>
</clipPath>
</defs>
</svg>
