<svg width="90" height="89" viewBox="0 0 90 89" fill="none" xmlns="http://www.w3.org/2000/svg">
<path d="M4.31201 4.22656L85.9774 4.26472L85.9396 85.1193L4.27423 85.0812L4.31201 4.22656Z" fill="url(#paint0_radial_167_561)"/>
<path d="M4.31218 4.22632L85.9775 4.26448L85.9398 85.119L4.2744 85.0809L4.31218 4.22632ZM0.55976 88.8584L89.633 88.9L89.6743 0.486936L0.601074 0.445312L0.55976 88.8584ZM60.6505 36.758C57.7231 36.7566 56.7228 38.2642 56.7222 39.5179C56.7215 40.8806 57.3816 41.8258 61.3255 43.8989C67.1434 46.7725 68.9628 49.5351 68.961 53.5687C68.9581 59.6192 64.4226 62.8694 58.3 62.8666C55.069 62.865 52.2847 62.1915 50.6965 61.2459C50.4288 61.1368 50.3931 60.9369 50.3933 60.6462L50.3959 55.0681C50.3961 54.6866 50.5746 54.5776 50.8423 54.7594C53.18 56.3049 55.8572 56.9966 58.3027 56.9978C61.2302 56.9992 62.4624 55.746 62.4632 54.0563C62.4638 52.6935 61.6076 51.494 57.8599 49.5117C52.5953 46.9473 50.4009 44.3481 50.4029 39.9874C50.4052 35.1179 54.1557 31.0679 60.6532 31.0709C63.8484 31.0724 66.0795 31.564 67.293 32.1279C67.5964 32.3097 67.6677 32.6186 67.6675 32.8912L67.6651 38.0695C67.665 38.3784 67.4864 38.56 67.1116 38.4508C65.4698 37.3962 63.0603 36.7591 60.6505 36.758ZM28.732 41.231C29.5888 41.304 30.2493 41.3043 31.7308 41.305C36.0685 41.3071 40.1569 39.7646 40.1597 33.7504C40.162 28.9537 37.2357 26.5358 32.2911 26.5334C30.8095 26.5328 29.3993 26.6048 28.721 26.6408L28.732 41.231ZM22.1189 21.1687C22.119 20.8961 22.6368 20.7147 22.9402 20.7148C25.3144 20.6069 28.8488 20.5359 32.5081 20.5376C42.7899 20.5424 46.8036 26.2859 46.8001 33.6082C46.7957 43.2017 39.9571 47.323 31.5674 47.3191C30.1572 47.3184 29.6753 47.2455 28.6757 47.2451L28.6689 61.7444C28.6687 62.0532 28.5616 62.1986 28.2224 62.1984L22.546 62.1957C22.2425 62.1956 22.0998 62.0865 22.1 61.7413L22.1189 21.1687Z" fill="#31C5F0"/>
<defs>
<radialGradient id="paint0_radial_167_561" cx="0" cy="0" r="1" gradientUnits="userSpaceOnUse" gradientTransform="translate(31.208 22.3789) rotate(0.0267738) scale(62.0565 61.1565)">
<stop stop-color="#34364E" stop-opacity="0.98"/>
<stop offset="1" stop-color="#0C0824"/>
</radialGradient>
</defs>
</svg>
