<svg width="22" height="20" viewBox="0 0 22 20" fill="none" xmlns="http://www.w3.org/2000/svg">
<path d="M9.79925 0.935539C10.0995 0.015403 11.4014 0.0160122 11.7009 0.936429L13.4494 6.31164C13.5834 6.72333 13.967 7.00209 14.3999 7.00229L20.0607 7.00494C21.0301 7.00539 21.4318 8.24661 20.6466 8.815L16.0701 12.1275C15.7185 12.382 15.5713 12.8342 15.7055 13.2469L17.4516 18.6144C17.7512 19.5354 16.6975 20.3018 15.9135 19.7333L11.3295 16.4087C10.9796 16.155 10.5063 16.1547 10.1561 16.4082L5.569 19.7284C4.78448 20.2963 3.73155 19.5288 4.032 18.6081L5.78308 13.2423C5.91773 12.8297 5.77086 12.3773 5.41952 12.1225L0.846197 8.80575C0.0614568 8.23662 0.464367 6.99578 1.43376 6.99624L7.09452 6.99888C7.52744 6.99908 7.91133 6.72068 8.04564 6.30912L9.79925 0.935539Z" fill="#070707"/>
</svg>
