<svg width="20" height="69" viewBox="0 0 20 69" fill="none" xmlns="http://www.w3.org/2000/svg">
<path d="M16.2724 60.9759L12.3833 63.2301L12.3826 64.9101L16.2706 64.9119L16.2695 67.1199L5.06953 67.1147L5.07162 62.6347C5.07211 61.6 5.43518 60.7202 6.16086 59.9952C6.88653 59.2702 7.76136 58.9079 8.78536 58.9084C9.4787 58.9087 10.1239 59.1064 10.7211 59.5013C11.3076 59.8963 11.75 60.4191 12.0484 61.0699L16.2735 58.5919L16.2724 60.9759ZM7.13456 64.9076L10.4466 64.9092L10.4476 62.6372C10.4478 62.2212 10.288 61.8638 9.96812 61.565C9.6376 61.2661 9.243 61.1166 8.78433 61.1164C8.32567 61.1162 7.93626 61.2653 7.61612 61.5639C7.29598 61.8624 7.13582 62.2196 7.13562 62.6356L7.13456 64.9076ZM16.5 53.194C16.4995 54.442 16.147 55.4658 15.4426 56.2655C14.7382 57.0652 13.794 57.4647 12.61 57.4642L5.07404 57.4607L5.07506 55.2687L12.4351 55.2721C13.0217 55.2724 13.4858 55.1073 13.8273 54.7768C14.1688 54.4356 14.3397 53.9077 14.34 53.193C14.3404 52.4783 14.1699 51.9556 13.8288 51.6248C13.4876 51.2833 13.0237 51.1124 12.437 51.1121L5.07701 51.1087L5.07804 48.9007L12.614 48.9042C13.798 48.9047 14.7419 49.3052 15.4455 50.1055C16.1491 50.9058 16.5006 51.9353 16.5 53.194Z" fill="#828282"/>
<path d="M19.4808 42.9183L4.76084 42.9114L4.7618 40.8474L19.4818 40.8543L19.4808 42.9183ZM14.1737 32.5672L14.1759 27.8472L16.2879 27.8482L16.2846 34.7762L5.08464 34.7709L5.08784 27.9229L7.19984 27.9239L7.19767 32.5639L9.58167 32.565L9.58365 28.325L11.6637 28.326L11.6617 32.566L14.1737 32.5672ZM5.09163 19.8066L5.09267 17.5986L16.2927 17.6038L16.2919 19.2838L9.44164 24.0806L16.2896 24.0838L16.2886 26.2918L5.08861 26.2866L5.08939 24.6066L11.9236 19.8097L5.09163 19.8066ZM10.2828 4.53135L11.1468 4.53175C12.7468 4.5325 14.0425 5.04511 15.0341 6.06957C16.0256 7.09403 16.521 8.41693 16.5202 10.0383C16.5194 11.7663 15.9587 13.2007 14.8382 14.3415C13.707 15.4716 12.3307 16.0363 10.7094 16.0356C9.0774 16.0348 7.69633 15.4741 6.56618 14.3536C5.43604 13.2224 4.87136 11.8248 4.87214 10.1608C4.87263 9.11549 5.11308 8.16093 5.59348 7.29716C6.06322 6.43338 6.69287 5.76167 7.48242 5.28204L8.56954 7.17055C8.11075 7.437 7.73723 7.84216 7.44897 8.38603C7.16072 8.91923 7.01644 9.51649 7.01613 10.1778C7.01564 11.2445 7.36722 12.1247 8.0709 12.8183C8.76392 13.5013 9.64376 13.8431 10.7104 13.8436C11.7664 13.844 12.6413 13.4978 13.3349 12.8048C14.0179 12.1011 14.3597 11.1733 14.3602 10.0213C14.3606 9.16792 14.1743 8.46384 13.8012 7.909C13.4175 7.34348 12.895 6.95924 12.2337 6.75626L12.2321 10.1483L10.2801 10.1473L10.2828 4.53135Z" fill="black"/>
</svg>
