<svg width="41" height="41" viewBox="0 0 41 41" fill="none" xmlns="http://www.w3.org/2000/svg">
<g clip-path="url(#clip0_169_15)">
<path d="M34.3213 0.0296698L5.96158 0.0164175C2.72171 0.0149035 0.0847092 2.64215 0.0831995 5.87305L0.0699839 34.1543C0.0684741 37.3852 2.70302 40.0149 5.94288 40.0164L34.3026 40.0297C37.5425 40.0312 40.1795 37.4039 40.181 34.173L40.1942 5.89179C40.1957 2.66089 37.5612 0.0311837 34.3213 0.0296698ZM37.8308 34.1719C37.8299 36.1104 36.2476 37.6868 34.3037 37.6859L5.94398 37.6727C4.00012 37.6718 2.41933 36.0939 2.42024 34.1554L2.43346 5.87414C2.43436 3.93567 4.01662 2.35926 5.96048 2.36017L34.3202 2.37342C36.2641 2.37433 37.8449 3.95222 37.844 5.89069L37.8308 34.1719Z" fill="#070707" stroke="#070707" stroke-width="0.5"/>
<path d="M18.9586 16.5065C18.9598 13.9216 16.8523 11.818 14.2602 11.8168L7.20947 11.8135L7.20181 28.2197L14.2526 28.223C16.8446 28.2242 18.9541 26.1226 18.9553 23.5377C18.9559 22.1388 18.338 20.8815 17.3604 20.0213C18.3388 19.1621 18.9579 17.9054 18.9586 16.5065ZM16.605 23.5366C16.6044 24.829 15.5497 25.8799 14.2537 25.8793L9.55316 25.8771L9.55535 21.1896L14.2559 21.1918C15.5519 21.1924 16.6056 22.2442 16.605 23.5366ZM9.55644 18.8458L9.55863 14.1583L14.2591 14.1605C15.5552 14.1611 16.6089 15.2129 16.6083 16.5054C16.6077 17.7978 15.553 18.8486 14.257 18.848L9.55644 18.8458Z" fill="#070707" stroke="#070707" stroke-width="0.5"/>
<path d="M27.1845 16.5106C23.9446 16.509 21.3076 19.1363 21.3061 22.3672C21.3046 25.5981 23.9391 28.2278 27.179 28.2293C29.2701 28.2303 31.2206 27.1091 32.2692 25.3029L30.2353 24.1283C29.6056 25.2129 28.4348 25.8861 27.1801 25.8856C25.6478 25.8848 24.3416 24.9046 23.8572 23.5403L33.0568 23.5446L33.0574 22.3727C33.0589 19.1418 30.4243 16.5121 27.1845 16.5106ZM23.8583 21.1965C24.344 19.8326 25.6511 18.8536 27.1834 18.8543C28.7156 18.855 30.0219 19.8352 30.5063 21.1996L23.8583 21.1965Z" fill="#070707" stroke="#070707" stroke-width="0.5"/>
<path d="M22.4861 11.8213L31.8871 11.8257L31.886 14.1694L22.485 14.165L22.4861 11.8213Z" fill="#070707" stroke="#070707" stroke-width="0.5"/>
</g>
<defs>
<clipPath id="clip0_169_15">
<rect width="40.111" height="40" fill="white" transform="translate(0.0859375 0.0136719) rotate(0.0267738)"/>
</clipPath>
</defs>
</svg>
