<svg width="40" height="41" viewBox="0 0 40 41" fill="none" xmlns="http://www.w3.org/2000/svg">
<path d="M30.6617 7.97757L30.9676 7.59348L30.5891 7.28066C27.6749 4.87215 23.9729 3.43253 19.9221 3.43064C18.5029 3.42997 17.1269 3.62815 15.8239 3.95325L15.0967 4.1347L15.5435 4.73646C16.9333 6.60798 18.9296 9.43448 21.32 13.8609L21.5264 14.2432L21.9337 14.0921C26.4618 12.4132 29.1759 9.84302 30.6617 7.97757ZM13.3627 5.21171L13.1178 4.88881L12.7512 5.06153C8.25411 7.18026 4.84585 11.2295 3.49888 16.1758L3.33252 16.7867L3.96535 16.807C6.44121 16.886 12.3595 16.7721 18.9179 15.0184L19.5365 14.853L19.2261 14.293C16.6848 9.70809 14.5472 6.77355 13.3627 5.21171ZM32.8145 9.47978L32.427 9.01897L32.0452 9.48452C30.3883 11.5049 27.5118 14.1289 22.9586 15.9081L22.4522 16.106L22.6917 16.5941C23.6723 18.5927 24.6234 20.7224 25.49 23.0223L25.6327 23.4013L26.0331 23.3403C29.3266 22.839 32.3707 22.8404 34.6701 23.0216C35.2292 23.0682 35.5899 23.1205 36.0098 23.1813C36.0982 23.1941 36.1893 23.2073 36.2854 23.2209L36.7974 23.2934L36.8526 22.7793C36.9203 22.1487 36.9594 21.5155 36.9597 20.8609C36.9618 16.5073 35.3862 12.5381 32.8145 9.47978ZM20.6639 17.1014L20.479 16.7302L20.08 16.8433C12.3657 19.031 5.57103 18.9609 3.45502 18.8745L2.9732 18.8548L2.9361 19.3356L2.9335 19.3693C2.89672 19.8458 2.85896 20.3348 2.85872 20.8545C2.85627 26.0883 5.11845 30.7614 8.68791 33.9599L9.06055 34.2938L9.3942 33.921C10.2898 32.9201 11.4909 31.6453 12.9512 30.3148L12.9532 30.313C15.7006 27.7826 19.2353 25.1055 23.0849 23.9384L23.6019 23.7817L23.4057 23.2784C22.5452 21.0702 21.6185 19.0176 20.6639 17.1014ZM30.1498 25.002L30.1498 25.002L30.1444 25.0023C29.1333 25.0506 28.0569 25.1475 26.9623 25.293L26.3675 25.3721L26.5526 25.9429C27.475 28.7872 28.2377 31.8001 28.7298 34.9341L28.8537 35.7231L29.5093 35.267C32.6964 33.0499 35.108 29.754 36.2325 25.8842L36.398 25.3147L35.8087 25.2479C34.3487 25.0823 32.4975 24.9153 30.1498 25.002ZM24.4932 26.1847L24.3398 25.7312L23.8801 25.8648C20.4982 26.847 16.96 29.3967 14.2785 31.8558C12.9828 33.0338 11.9363 34.152 11.0965 35.068L10.6836 35.5184L11.2067 35.834C13.7515 37.3696 16.707 38.2736 19.8964 38.2751C22.29 38.2762 24.548 37.7716 26.6103 36.8815L26.9584 36.7313L26.9077 36.3556C26.4251 32.7815 25.5724 29.375 24.4932 26.1847ZM0.859795 20.844C0.86482 10.0908 9.43615 1.34896 19.923 1.35386C30.4099 1.35876 38.9731 10.1086 38.968 20.8618C38.963 31.615 30.3917 40.3568 19.9048 40.3519C9.41793 40.347 0.85477 31.5972 0.859795 20.844Z" fill="#070707" stroke="#070707"/>
</svg>
