<svg width="40" height="41" viewBox="0 0 40 41" fill="none" xmlns="http://www.w3.org/2000/svg">
<path d="M12.1675 1.26589L12.6675 1.26613L12.6675 1.25652L28.5723 1.26395C34.5368 1.26674 39.417 6.25371 39.4141 12.381L39.4063 29.155C39.4034 35.2826 34.5183 40.2648 28.5634 40.262L12.1493 40.2543C6.18335 40.2515 1.29515 35.2728 1.29801 29.1564L1.30585 12.3728C1.30871 6.24606 6.20237 1.26311 12.1675 1.26589ZM3.31417 12.3824L3.31417 12.3834L3.30633 29.167C3.304 34.1531 7.22967 38.1856 12.1502 38.1879L28.5644 38.1956C33.4676 38.1979 37.3956 34.1676 37.3979 29.1637L37.4058 12.3897C37.4081 7.38548 33.4835 3.35189 28.5713 3.3496L12.1665 3.34193C7.25374 3.33964 3.32644 7.36988 3.31417 12.3824ZM31.4004 8.46497C31.4006 7.87504 31.8549 7.42717 32.405 7.42742C32.9551 7.42768 33.409 7.87598 33.4087 8.46591C33.4084 9.05584 32.9541 9.50371 32.404 9.50346C31.8539 9.5032 31.4001 9.0549 31.4004 8.46497ZM10.3363 20.7593C10.339 15.1035 14.8658 10.4953 20.3703 10.4978C25.8747 10.5004 30.3972 15.1129 30.3946 20.7686C30.392 26.4244 25.8651 31.0326 20.3607 31.0301C14.8562 31.0275 10.3337 26.415 10.3363 20.7593ZM28.3863 20.7677C28.3884 16.2341 24.8299 12.5759 20.3693 12.5739C15.9087 12.5718 12.3468 16.2266 12.3446 20.7602C12.3425 25.2938 15.901 28.9519 20.3616 28.954C24.8223 28.9561 28.3842 25.3013 28.3863 20.7677Z" fill="#070707" stroke="#070707"/>
</svg>
